[center][img]http://www.disneydreaming.com/wp-content/uploads/2011/04/Monte-Carlo-Movie-Poster.jpg[/img]



[img]http://leetleech.org/images/48874973695367351744.png[/img]



Format                           : AVI
Format/Info                      : Audio Video Interleave
File size                        : 1 014 MiB
Duration                         : 1h 43mn
Overall bit rate                 : 1 366 Kbps
Writing application              : VirtualDubMod 1.5.4.1 (build 2178/release)
Writing library                  : VirtualDub build 32842/release

Video
ID                               : 0
Format                           : MPEG-4 Visual
Format profile                   : Advanced Simple@L5
Format settings, BVOP            : 2
Format settings, QPel            : No
Format settings, GMC             : No warppoints
Format settings, Matrix          : Default (H.263)
Muxing mode                      : Packed bitstream
Codec ID                         : XVID
Codec ID/Hint                    : XviD
Duration                         : 1h 43mn
Bit rate                         : 1 228 Kbps
Width                            : 624 pixels
Height                           : 336 pixels
Display aspect ratio             : 1.857
Frame rate                       : 25.000 fps
Color space                      : YUV
Chroma subsampling               : 4:2:0
Bit depth                        : 8 bits
Scan type                        : Progressive
Compression mode                 : Lossy
Bits/(Pixel*Frame)               : 0.234
Stream size                      : 912 MiB (90%)
Writing library                  : XviD 64

Audio
ID                               : 1
Format                           : MPEG Audio
Format version                   : Version 1
Format profile                   : Layer 3
Codec ID                         : 55
Codec ID/Hint                    : MP3
Duration                         : 1h 43mn
Bit rate mode                    : Constant
Bit rate                         : 128 Kbps
Channel(s)                       : 2 channels
Sampling rate                    : 44.1 KHz
Compression mode                 : Lossy
Stream size                      : 95.0 MiB (9%)
Alignment                        : Split accross interleaves
Interleave, duration             : 40 ms (1.00 video frame)
Interleave, preload duration     : 500 ms






[url]http://www.imdb.com/title/tt1067774/[/url]




[IMG]http://leetleech.org/images/89524873606771859129.png[/IMG]




Storyline

A young woman, her uptight step sister and her best friend use their savings for a long anticipated dream trip to Paris, which turns out to be a big disappointment. When they decide to take a break from their lousy tour and duck into the lobby of a luxury hotel, one of them is mistaken for a spoiled British heiress. Before they get the chance to reveal their true identities they are wrapped up in misadventures during a vacation to Monte Carlo instead.




[img]http://leetleech.org/images/95521316153253938506.png[/img]




[img]http://www.leetleech.org/images/11857467928999803932.png[/img]

[img]http://www.leetleech.org/images/23979421549227459653.png[/img]

[img]http://www.leetleech.org/images/95087882313694747073.png[/img]



Source Used 


Russian Vid .............Thanks 

LU Audio ..................Thanks



Russian vids colours were all over the place so changed the rgb,denoised ,smoothened ,hue levels ,levels filter 

So



Enjoy





Greetz to IMAGiNE,Flawl3ss,DiLLoN,BDK,NOiR,TOXiC,THC,Ez,Rx,Boobyblue,TaRiQ786,BHRG





[img]http://img411.imageshack.us/img411/6898/sig1n.jpg[/img]








Currently looking for encoders/syncers if anything to offer contact me on dtrg@hush.ai






[/center]